# xmcd
#
# Track frame offsets: 
#        150
#        21347
#        43303
#        66567
#        89198
#        111355
#        131777
#        150142
#        168875
#        194465
#        215419
#
# Disc length: 3237 seconds
#
# Revision: 3
# Processed by: cddbd v1.5.2PL0 Copyright (c) Steve Scherf et al.
# Submitted via: ExactAudioCopy v0.99pb5
#
DISCID=a40ca30b
DTITLE=Tirso Duarte - Si la vida te dice baila
DYEAR=2003
DGENRE=Salsa
TTITLE0=Juras decir la verdad
TTITLE1=El Riqui Ricon
TTITLE2=Mi Vecina
TTITLE3=Charanguero Major
TTITLE4=Eso que me pides
TTITLE5=Confianza
TTITLE6=Si la vida te dice baila
TTITLE7=La Pelea
TTITLE8=Me fallantes
TTITLE9=dejala que corra
TTITLE10=Tiene de todo
EXTD=YEAR: 2003
EXTT0=
EXTT1=
EXTT2=
EXTT3=
EXTT4=
EXTT5=
EXTT6=
EXTT7=
EXTT8=
EXTT9=
EXTT10=
PLAYORDER=
